<?xml version="1.0" standalone="no"?><!DOCTYPE svg PUBLIC "-//W3C//DTD SVG 1.1//EN" "http://www.w3.org/Graphics/SVG/1.1/DTD/svg11.dtd"><svg t="1616597659889" class="icon" viewBox="0 0 1201 1024" version="1.1" xmlns="http://www.w3.org/2000/svg" p-id="7191" xmlns:xlink="http://www.w3.org/1999/xlink" width="234.5703125" height="200"><defs><style type="text/css"></style></defs><path d="M819.2 372.510236c-11.288189 0-22.576378-6.450394-28.220472-16.932283-8.062992-15.319685-1.612598-34.670866 13.707086-41.927559l126.588977-64.503937c15.319685-8.062992 34.670866-1.612598 41.927559 13.707086 8.062992 15.319685 1.612598 34.670866-13.707087 41.927559l-126.588976 64.503937c-4.031496 2.418898-8.869291 3.225197-13.707087 3.225197zM677.291339 352.352756c-8.062992 0-15.319685-3.225197-21.770079-8.869291L509.581102 203.993701c-12.900787-12.094488-12.900787-31.445669-0.806299-44.346457s31.445669-12.900787 44.346457-0.806299L699.061417 298.330709c12.900787 12.094488 12.900787 31.445669 0.8063 44.346456-5.644094 6.450394-14.513386 9.675591-22.576378 9.675591zM235.43937 378.154331c-8.062992 0-16.125984-3.225197-21.770079-8.869292-12.094488-12.094488-12.900787-32.251969-0.806299-44.346456l165.291339-168.516536c12.094488-12.094488 32.251969-12.900787 44.346456-0.806299s12.900787 32.251969 0.8063 44.346457L258.015748 368.47874c-6.450394 6.450394-14.513386 9.675591-22.576378 9.675591z" fill="#6097FD" p-id="7192"></path><path d="M174.966929 523.288189c-64.503937 0-116.107087-52.409449-116.107086-116.107087 0-64.503937 52.409449-116.107087 116.107086-116.107086 64.503937 0 116.107087 52.409449 116.107087 116.107086s-52.409449 116.107087-116.107087 116.107087z m0-170.129134c-29.833071 0-53.215748 24.188976-53.215748 53.215748 0 29.833071 24.188976 53.215748 53.215748 53.215748 29.833071 0 53.215748-24.188976 53.215748-53.215748 0-29.026772-23.382677-53.215748-53.215748-53.215748zM463.622047 238.664567c-64.503937 0-116.107087-52.409449-116.107086-116.107087 0-64.503937 52.409449-116.107087 116.107086-116.107086 64.503937 0 116.107087 52.409449 116.107087 116.107086s-51.60315 116.107087-116.107087 116.107087z m0-170.129134c-29.833071 0-53.215748 24.188976-53.215748 53.215748 0 29.833071 24.188976 53.215748 53.215748 53.215748 29.833071 0 53.215748-24.188976 53.215748-53.215748 0.806299-29.026772-23.382677-53.215748-53.215748-53.215748zM741.795276 492.648819c-64.503937 0-116.107087-52.409449-116.107087-116.107087 0-64.503937 52.409449-116.107087 116.107087-116.107086s116.107087 52.409449 116.107086 116.107086S806.299213 492.648819 741.795276 492.648819zM741.795276 322.519685c-29.833071 0-53.215748 24.188976-53.215748 53.215748 0 29.833071 24.188976 53.215748 53.215748 53.215748 29.833071 0 53.215748-24.188976 53.215748-53.215748 0.806299-29.026772-23.382677-53.215748-53.215748-53.215748zM1021.581102 353.159055c-64.503937 0-116.107087-52.409449-116.107086-116.107086 0-64.503937 52.409449-116.107087 116.107086-116.107087 64.503937 0 116.107087 52.409449 116.107087 116.107087 0 64.503937-52.409449 116.107087-116.107087 116.107086z m0-169.322835c-29.833071 0-53.215748 24.188976-53.215748 53.215749 0 29.833071 24.188976 53.215748 53.215748 53.215748 29.833071 0 53.215748-24.188976 53.215748-53.215748 0-29.026772-24.188976-53.215748-53.215748-53.215749z" fill="#21D3AC" p-id="7193"></path><path d="M251.565354 696.64252v299.943307H99.174803V696.64252c0-8.062992 6.450394-13.707087 13.707087-13.707087h124.170079c8.869291 0 14.513386 5.644094 14.513385 13.707087zM533.770079 414.437795v582.148032H381.379528V414.437795c0-9.675591 8.062992-18.544882 18.544881-18.544882H516.031496c9.675591 0.806299 17.738583 8.869291 17.738583 18.544882zM815.974803 648.264567v348.32126H663.584252V648.264567c0-8.062992 6.450394-14.513386 14.513386-14.513386h122.55748c8.869291 0 15.319685 6.450394 15.319685 14.513386zM1098.179528 534.576378v462.009449h-152.390552V534.576378c0-8.869291 7.256693-16.125984 16.125985-16.125984h119.332283c9.675591 0 16.932283 7.256693 16.932284 16.125984z" fill="#4988FD" p-id="7194"></path><path d="M1172.359055 1024H28.220472c-15.319685 0-27.414173-12.094488-27.414173-27.414173s12.094488-27.414173 27.414173-27.414173h1144.138583c15.319685 0 27.414173 12.094488 27.414173 27.414173s-12.094488 27.414173-27.414173 27.414173z" fill="#4988FD" p-id="7195"></path></svg>